<?xml version="1.0" standalone="no"?>
<!DOCTYPE svg PUBLIC "-//W3C//DTD SVG 20010904//EN"
 "http://www.w3.org/TR/2001/REC-SVG-20010904/DTD/svg10.dtd">
<svg version="1.0" xmlns="http://www.w3.org/2000/svg"
 width="1280.000000pt" height="1280.000000pt" viewBox="0 0 1280.000000 1280.000000"
 preserveAspectRatio="xMidYMid meet">
<g transform="translate(0.000000,1280.000000) scale(0.100000,-0.100000)"
fill="#000000" stroke="none">
<path d="M2570 11964 c-93 -9 -197 -29 -323 -60 -203 -50 -319 -99 -477 -201
-201 -131 -334 -255 -457 -429 -157 -222 -210 -341 -281 -629 l-37 -150 -3
-4020 c-2 -2867 0 -4044 8 -4104 14 -103 52 -269 87 -376 98 -301 320 -602
584 -792 224 -162 380 -228 704 -301 l120 -27 3975 -3 c2798 -2 4003 0 4070 8
289 33 568 128 770 263 202 135 328 254 453 431 161 228 251 456 302 766 13
84 15 541 15 4080 0 4367 5 4026 -59 4286 -61 248 -149 422 -326 649 -88 112
-172 191 -302 283 -237 169 -392 233 -753 310 -68 14 -448 16 -4055 17 -2189
1 -3996 0 -4015 -1z m7905 -174 c4 -7 -1312 -10 -3940 -10 -2628 0 -3944 3
-3940 10 4 7 1328 10 3940 10 2612 0 3936 -3 3940 -10z m-608 -1161 c89 -12
249 -71 338 -125 126 -76 286 -235 354 -353 46 -78 101 -210 122 -291 12 -47
14 -561 14 -3415 0 -3178 -1 -3363 -18 -3424 -50 -183 -143 -339 -282 -476
-140 -137 -277 -215 -476 -272 -61 -17 -212 -18 -3414 -18 -3221 0 -3352 1
-3415 18 -104 30 -227 83 -306 132 -87 54 -243 205 -301 290 -85 127 -146 281
-162 410 -15 123 -16 6564 -1 6683 16 129 84 295 170 422 39 57 200 219 257
258 44 31 196 105 268 131 33 12 87 25 120 30 93 13 6636 13 6732 0z m-8687
-239 c0 -5 -2 -10 -4 -10 -3 0 -8 5 -11 10 -3 6 -1 10 4 10 6 0 11 -4 11 -10z
m10730 -21 c0 -10 -4 -19 -10 -19 -5 0 -10 12 -10 26 0 14 4 23 10 19 6 -3 10
-15 10 -26z m-9720 -369 c0 -5 -5 -10 -11 -10 -5 0 -7 5 -4 10 3 6 8 10 11 10
2 0 4 -4 4 -10z m8690 -206 c0 -8 -5 -12 -10 -9 -6 4 -8 11 -5 16 9 14 15 11
15 -7z m-4 -6691 c-10 -10 -19 5 -10 18 6 11 8 11 12 0 2 -7 1 -15 -2 -18z
m-6 -69 c0 -8 -4 -12 -10 -9 -5 3 -10 10 -10 16 0 5 5 9 10 9 6 0 10 -7 10
-16z m1040 -563 c0 -11 -4 -23 -10 -26 -6 -4 -10 5 -10 19 0 14 5 26 10 26 6
0 10 -9 10 -19z m-10730 -22 c0 -11 -4 -17 -10 -14 -5 3 -10 13 -10 21 0 8 5
14 10 14 6 0 10 -9 10 -21z"/>
<path d="M5290 9070 c-20 -20 -20 -33 -20 -1413 0 -1070 -3 -1396 -12 -1405
-9 -9 -168 -12 -653 -12 -609 0 -643 -1 -658 -18 -21 -23 -22 -66 -3 -84 12
-13 775 -542 1915 -1329 250 -173 455 -318 455 -324 1 -7 -407 -12 -1196 -15
-1132 -5 -1198 -6 -1215 -23 -17 -16 -18 -44 -18 -332 0 -314 0 -314 23 -337
l23 -23 2578 -3 c1862 -3 2590 0 2620 8 22 6 45 20 51 30 7 13 10 126 8 330
-3 281 -5 311 -21 327 -17 17 -82 18 -1195 23 -776 3 -1177 8 -1176 15 0 6
212 156 470 334 1535 1059 1912 1323 1917 1343 5 18 -5 51 -20 68 -3 3 -298 7
-656 10 l-652 5 -6 1404 -5 1404 -23 18 c-22 18 -71 19 -1267 19 -1231 0
-1244 0 -1264 -20z"/>
</g>
</svg>
